<svg version="1.0" xmlns="http://www.w3.org/2000/svg" width="1656" height="1706.667" viewBox="0 0 1242 1280"><g fill="#795548"><path d="M360 .7c-8.6.9-21.3 4.8-31 9.5-10 4.8-11.2 5.7-24.1 18.7-11.3 11.4-14.2 14.9-17.7 21.7-7 13.6-8.7 21.4-8.6 38.9.1 12.8.5 16.5 2.7 24.9 16.3 61.5 80.6 112.7 146.1 116.3l11.8.6-5.3 1.7c-8.1 2.5-9.6 3.5-19.7 13.4-13.4 13-17.2 21.3-17.2 37.7 0 33.2 28 68.6 61.2 77.5 12.8 3.4 30.2 1 38.7-5.3 6.8-5 19.1-18.3 21.7-23.5 9.5-18.7 4.8-46.1-11.6-68.3-4.6-6.1-15.9-17-22-21.2-10.4-7-24.8-12.2-34.4-12.4-3.2 0-2-.5 5.9-2.4 19.6-4.5 30.2-10.3 44.9-24.5 5.4-5.2 11.8-12.3 14.2-15.7 14.9-20.8 18.2-47.7 9.3-76.8C504.4 44.4 428.3-6.7 360 .7zm59.9 122.2C437 132 444 136 442.8 136c-.4 0-5.8-2.7-12-6.1-6.2-3.4-17.5-9.2-25-13-7.6-3.8-13.8-7.1-13.8-7.4 0-.9 11.2 4.5 27.9 13.4zm629.6-94.3c-21.2 2.9-34.9 9.9-51.1 26.6-15 15.3-22.5 29.1-26.7 48.8-2.8 13.3-2.7 34.5.3 49.3 10.4 52.8 47.9 101.2 93.1 120.3 29.2 12.3 58 11.7 80.5-1.7 7.3-4.3 26.4-22.6 31.6-30.2 5.8-8.6 10.5-19 13.5-30.2 2.4-9 2.6-11.7 2.6-28 .1-16.2-.2-19.2-2.7-30-14-60.7-59.8-110.6-112.7-122.9-6.7-1.5-23.2-2.7-28.4-2zm33.1 127.2c4.6 11.3 8.3 20.6 8.1 20.8-.2.2-2.4-4.5-5-10.4-11.2-26-20.9-48.8-21.3-50.2-1.3-4.6 11 22.3 18.2 39.8zM169.1 51.5c-14.7 3.2-29.5 10.1-42.1 19.6-11 8.3-32.6 30.9-39.9 41.9-22.2 33.2-29.6 72.5-19.5 103 9.7 29 34.7 46.4 64.4 44.7 25.2-1.5 47.2-12.8 71-36.7 23.4-23.3 35.5-43.4 42.7-70.8 3.8-14.3 4.4-37.9 1.4-50.7-3.5-14.5-8.9-24.6-18.5-34.1-9.3-9.3-18.6-14.5-30.1-16.9-8.6-1.8-20.9-1.8-29.4 0zm26.5 35.2c-11.4 14.3-19.4 29.5-37 70.6-14.7 34.3-22.1 48.7-31.4 61.1-3.6 4.6-14 13.1-15 12.1-.3-.2 1.4-2.5 3.7-5 10.2-11.1 22.4-33.4 34.1-62.5 9.8-24.3 13.8-33.7 19.2-44.5 5.9-11.8 14.2-24.6 18.9-29.4 2.9-2.9 11.5-9.1 12.6-9.1.2 0-2.1 3-5.1 6.7zM816 52.2c-24.7 5.3-43.1 15.9-64 36.8-23.9 23.9-34 44.1-34 67.9 0 16.5 4.4 27.6 14.9 38.2 23.5 23.6 66.3 22.4 104.6-3 9-5.9 30.2-26.4 37.4-36.1 6.2-8.3 11.8-19.1 15.1-29 2.7-8.2 3.8-25.9 2.1-34.3-4-19.1-20.6-35.3-41.2-40.2-7.2-1.7-27.7-1.9-34.9-.3zM862.9 94c-1.2 2.2-3.6 5.6-5.2 7.5-4.5 5.5-23.2 17.3-46.7 29.5-35.8 18.7-47.1 25.6-57.9 35.6-3.4 3.1-6.1 5.2-6.1 4.7 0-.6 1.8-3.7 3.9-7 6.5-10.1 18-17.6 55.1-36.2 12.9-6.5 26.7-13.7 30.5-16.1 7.8-4.8 21.7-15.4 25.4-19.4 3.4-3.6 3.6-3.3 1 1.4z"/><path d="M276.2 171.9c-9.3 3.5-14.4 7.1-25.7 18.5-8.8 8.9-11.9 12.7-15.3 19.2-9.6 18.7-10.1 38-1.2 51 6 8.7 18 13.4 29.2 11.4 11.9-2.2 18-6 31.9-19.9 11-11 13.2-13.7 16.8-21.1 11.7-24 8-48.2-9-57.4-7.2-4-18.7-4.7-26.7-1.7zm22.3 10.1c-1 1.1-2.1 1.7-2.4 1.4-.3-.3.3-1.2 1.3-2 2.8-2 3.2-1.7 1.1.6zm-10.3 10.7c-1.6 2.1-4.1 5.8-5.5 8.3-1.5 2.5-2.7 4.1-2.7 3.7 0-2.2 8.6-15.7 10.1-15.7.6 0-.2 1.7-1.9 3.7zm-27.3 54.7c-1.1 1.9-2.7 4-3.6 4.8-1.4 1.1-1.6 1.1-.8-.2 1.3-2.2 5.7-8 6.1-8 .2 0-.6 1.5-1.7 3.4zm-10 11.9c-.2.1-1.3.9-2.4 1.7-1.9 1.4-1.9 1.4-.6-.3.7-.9 1.8-1.7 2.4-1.7.6 0 .8.1.6.3zM913.5 195c-11.3 1.2-22.7 4.4-32.3 9-11.7 5.6-16.3 9-28 21-8.2 8.4-11.1 12.1-14.2 18.5-7.1 14.3-7.2 27-.6 41 18.6 39.6 86.2 52.1 129.8 23.9 8.5-5.5 26.2-22.8 30.1-29.7 22.6-38.7-11.3-81.1-67.3-84-5.2-.3-13.1-.1-17.5.3zm13.5 63.1c-5.2 1-10.4 1.8-11.5 1.7-3-.1 14.5-3.6 18-3.6 1.7 0-1.3.8-6.5 1.9zM613 209c-10.1 1.9-19.1 5.8-28.5 12.5-7.6 5.4-24.8 23.1-30.2 31-29.7 44-29.3 110.3.9 154.2 6.3 9.1 19.5 21.7 27.8 26.6 23.4 13.6 50.1 12.3 72.4-3.7 8.8-6.3 26.5-24.8 32.3-33.7 12.8-19.7 20.3-46.8 20.3-73.4 0-53.7-27.9-100.4-67-111.9-6.5-2-21.7-2.8-28-1.6zm11.5 99c-.9 6.9-2.9 20.8-4.5 31s-3.4 21.6-3.9 25.5c-.9 6-1 5.1-.6-6.8.3-7.5.9-16.8 1.4-20.5.6-3.7 1.9-13.7 3.1-22.2 1.1-8.5 2.5-18.2 3-21.5.5-3.3 1.3-9.8 1.7-14.5l.8-8.5.3 12.5c.2 7.3-.4 17.7-1.3 25zm-269.3-61.3c-3.1.6-18.9 15.8-21.2 20.4-1.1 2-2.4 6.5-3 10.1-3.9 22 13.3 43.4 29.3 36.5 1.6-.7 6.4-4.8 10.7-9.2 10.3-10.4 12.4-14.9 12.4-27 .1-7.8-.3-9.8-2.7-15-5.8-12.5-14.5-17.9-25.5-15.8zm6.8 9.6c0 1-.4 1.5-1 1.2-.5-.3-1-1.8-1-3.3 0-2.1.2-2.4 1-1.2.5.8 1 2.3 1 3.3zm-7.8 50.8c.5 2.9.4 3-.9 1.4-1.4-2.1-1.8-5.9-.4-5.1.5.3 1.1 2 1.3 3.7zM744 246.9c-6.2 1.3-11.3 4.8-19.3 13-9.8 10.2-11.9 14.7-12.5 26.6-.6 14.1 3.5 26.6 13.1 39.3 9.7 12.8 26.5 22.2 39.8 22.2 9.4 0 14.6-2.6 24.6-12.5 11.3-11.1 13.5-15.4 14.1-27.5.8-15.9-4.9-30.6-16.8-43.3-7.6-8.1-14.1-12.8-21.9-15.7-5.7-2.2-16-3.2-21.1-2.1zm-555 33.3c-3 .4-8.8 2.4-12.9 4.4-10.4 4.9-26.5 20.8-31.3 31-6.4 13.4-3.7 26.9 6.6 32.9 10.2 6 21.8 5.6 35.6-1.1 6-2.9 9.5-5.8 17.6-13.8 13.2-13.3 15.9-18.6 15.9-30.8 0-8-.2-8.9-3-13-5.5-7.8-16.6-11.5-28.5-9.6zm22.3 16.2c-1 1.3-2.2 2.2-2.6 1.9-.9-.6 2.1-4.3 3.5-4.3.5 0 .1 1.1-.9 2.4zM204 303c0 .5-1 1.5-2.2 2.1-2.3 1.2-2.3 1.2-.4-1 2.1-2.3 2.6-2.6 2.6-1.1zm-41.5 24c-1 1.1-2.3 2-2.9 2-.6-.1 0-1 1.3-2 3-2.6 3.9-2.6 1.6 0zm-8.5 7.8c0 1-2.2 3.2-3.2 3.2-.5 0-.3-.9.4-2 1.3-2 2.8-2.7 2.8-1.2zm905.1-43.2c-2.5.9-6.2 2.7-8.4 4.1-5.6 3.5-20.1 18.7-24.1 25.3-9 14.6-9.2 32.5-.4 42.4 7.2 8.3 18.2 9.8 30.2 4.3 8.3-3.8 26-21.6 30.4-30.5 8.5-17.3 5.9-36.2-6-43.5-5.9-3.7-15-4.6-21.7-2.1zm15.9 9.4c-1 1.9-3 2.8-3 1.4 0-.6 3-3.3 3.8-3.4.1 0-.2.9-.8 2zm-37.5 60c-1 1.1-2 1.8-2.3 1.5-.3-.3.3-1.4 1.3-2.5s2-1.8 2.3-1.5c.3.3-.3 1.4-1.3 2.5zM57.1 302.1c-10.6 1.8-17.6 6.1-30.1 18.8-12.5 12.6-16.8 19-21.2 31.3-7.8 22-7.6 47 .6 69 4.5 11.9 8.8 18.8 17.5 28 16.2 17.1 36.7 21.6 55.8 12.3 12.1-6 28.6-23.1 35.6-37 7.3-14.7 10.8-35.3 8.7-52.5-2.6-22.6-10.3-40.3-23.5-53.6-9-9.2-16.8-13.7-27.4-16-7.4-1.5-8.3-1.5-16-.3zm1119.6 2.4c-10.4 2.9-15.8 6.5-27.8 18.4-12.8 12.8-18 20.6-22.9 34-6.5 17.7-7.7 40.7-3.1 58.6 8.4 32.5 33.1 53 58.3 48.5 11.6-2 19.6-6.8 31.7-18.9 11.7-11.6 16.5-18.2 21.2-29.1 5.9-13.9 7.3-21.8 7.3-40-.1-15-.3-17.3-2.8-25.5-4.2-13.9-9.9-23.8-18.6-32.5-4.1-4.2-9.7-8.6-12.3-9.9-10.4-5-21.3-6.3-31-3.6zm7 69.7c-.3.7-.5.2-.5-1.2s.2-1.9.5-1.3c.2.7.2 1.9 0 2.5zm-1.3 6.2c-.3 2.1-.8 3.5-1.1 3.2-.2-.2-.1-2 .3-4 .3-2.1.8-3.5 1.1-3.2.2.2.1 2-.3 4z"/><path d="M284.7 307.6c-10.6 1.9-22.4 6.6-31.1 12.4-8.7 5.9-27.8 25.4-32.5 33.3-13.6 23-16.7 54-8.5 85 12.9 48.6 49.6 93 94.8 114.7 20.2 9.6 36.6 13.5 57.1 13.4 26-.1 43-6.7 61.5-24.1 16.4-15.4 24.6-28.6 29.6-47.8 2.3-8.7 2.7-12 2.7-25.5 0-17.3-1.9-28.6-7.4-45.2-13.3-39.6-44.6-77.5-81.7-98.7-27.7-15.8-58.5-22.2-84.5-17.5zm30.4 98.1c5.4 8 20 31.6 35.6 57.5.2.5.2.8 0 .8-.6 0-11.9-17.4-23.8-36.5-5.1-8.3-12.6-20.2-16.6-26.5-8.5-13.2-5.6-10.4 4.8 4.7zm577.1-65.1c-15.6 3.4-26.9 10.2-40.5 24.4-7.5 7.7-10.5 11.7-13.6 18.2-12.1 24.5-8.1 54.3 11.1 83.4 27.7 42 81.2 67.6 125.2 59.9 18.2-3.2 29.5-9.6 44.8-25.3 14.8-15.3 20.2-28.1 20-48.2-.3-50.7-50-102.3-108.6-112.9-8.2-1.5-30.7-1.2-38.4.5zm-123.3 29.9c-8.4 1.7-18.8 6-26.5 11-7.6 5-27.8 25.1-33.3 33.4-15.4 22.7-18.8 50.1-8.4 67.8 3.7 6.3 12.4 13.8 19.1 16.4 8 3.1 20.2 3.7 29.5 1.4 15.3-3.7 24.5-9.4 40.6-25 15.9-15.4 22.8-25.7 28.3-42.1 3-9.1 3.3-29 .5-37.1-6.9-19.6-27.7-30.5-49.8-25.8zm15.2 31.2c-6.5 7.1-16.4 21.2-25.1 35.8-8 13.5-18.4 28.7-21.6 31.6-2.9 2.7-9.3 6.9-10.6 6.9-.3 0 2.1-2.8 5.4-6.3 6.6-6.8 17.1-22.3 29.2-43.1 9.8-16.9 15.6-24.2 22.6-28.4 3-1.7 5.6-3.2 5.8-3.2.2 0-2.4 3-5.7 6.7zm-618.6-10.9c-5.4 2.5-17.7 15.1-20.6 21-2 4-2.4 6.3-2.4 14.7 0 8.7.3 10.7 2.6 15.5 4.9 10.5 11.8 15.9 20.2 16 6 0 9.7-2.2 18.4-11.4 9.9-10.3 11.8-15 11.1-28-1-20-15.9-34-29.3-27.8zm8.1 8.7c.4 2 .3 2.7-.3 2-.6-.6-1.4-2.4-1.7-4-.5-2-.4-2.7.3-2 .5.5 1.3 2.3 1.7 4zm-8.6 47.7c0 .7.3 2.4.6 3.8.4 1.8.3 2.1-.4 1-1.7-2.7-2.4-6-1.3-6 .6 0 1.1.6 1.1 1.2zm358.1-38.7c-9.8 2.8-15.1 6.4-28.2 19.5-11.2 11.1-13.1 13.5-16.7 21-5 10.6-6.6 17.3-6.5 27.5.1 11 3 18.3 9.8 25.2 6.5 6.4 13.5 8.9 23 8 12.6-1.2 23.6-7.7 37.2-22.1 14.6-15.4 20.7-28.8 20.6-45.6 0-11.4-2.3-18.4-8.3-25.3-7.1-8-19.6-11.3-30.9-8.2zm19.3 11c-.7 1.6-2.4 2.1-2.4.6 0-.8.7-1.3 2.7-2 .1-.1 0 .6-.3 1.4zm-11.3 12.2c-2.1 3.2-4.8 7.7-6 10-1.2 2.4-2.4 4.3-2.6 4.3-1 0 6.4-13.7 9-16.8 4.1-4.9 3.9-3.8-.4 2.5zm-25.3 51.5c-.8 1.3-2.1 3.3-2.9 4.5-.7 1.3-1.9 2.5-2.5 2.7-.7.3.4-1.7 2.4-4.5 3.8-5 5.6-6.7 3-2.7zM494 497c0 .5-1 1.5-2.2 2.1-2.3 1.2-2.3 1.2-.4-1 2.1-2.3 2.6-2.6 2.6-1.1zm587.2-65.9c-2.3 1.2-8 6-12.7 10.8-11.1 11.2-14.9 18.3-15.4 29.4-.5 11.3 2.9 18.4 10.3 21.8 5.1 2.3 8.9 2.4 15.1.2 6.6-2.2 22-16.9 26.3-25.1 8-15.2 5.4-31.9-6-37.8-4.1-2.1-12.6-1.8-17.6.7zm15.8 7.6c0 2.2-1.7 5-2.5 4.2-.5-.6 1.4-5.9 2.2-5.9.1 0 .3.8.3 1.7zm-14.9 22c-.5 1-1.7 2.7-2.6 3.8-1.6 1.9-1.7 1.9-.3-.5 2.6-4.6 2.9-5 3.4-5 .3 0 0 .8-.5 1.7zm-15.5 24.4c-1.1 2.4-1.5 2.8-1.5 1.4-.1-3.4 1.1-6.7 2.1-5.7.5.5.2 2.3-.6 4.3zM107 458.5c-16.2 3.2-27.8 10.1-43.5 25.9-13.9 14-19.9 23.3-25.1 38.3-17.7 51.8 1.6 118.9 47.1 163.8 22.4 22.2 48.9 36 76.2 39.6 20.4 2.7 42.6-3.1 58.8-15.4 7.9-6 22-20.7 26.9-28 30.5-46.3 19.5-120.5-25.9-174.6-21.3-25.4-49.9-43.5-77.6-49.1-11.2-2.3-26.9-2.5-36.9-.5zm14.6 98.2c3.2 4.3 12.5 16.3 20.7 26.8 20.8 26.4 20.9 26.5 20.4 26.5-1.3 0-36.9-44.9-44.6-56.3-4.9-7.3-3-5.6 3.5 3zm484.6-86.2c-6.3 1.9-8.8 3.8-18.4 13.7-9.9 10.2-12.6 15.6-13.5 27.4-1.4 18.6 9.1 40.6 26.2 54.7 12.1 10 24.1 14.7 37.7 14.7 11.7 0 17.2-2.4 27.5-12.4 4.6-4.4 9.6-10 11-12.3 19.4-32.8-17.4-87.6-58.6-87.2-4.2 0-9.5.6-11.9 1.4zm495.9 26.6c-10.4 2.7-26.2 10.5-35.6 17.6-12 9.1-31.9 30.1-39.8 41.9-11.3 17-19 35.7-22.2 54.1-2.2 12.3-1.9 31.7.5 42.8 5.8 26.4 24.5 46.9 48 52.6 8.2 2 25 1.5 34.4-1 9.9-2.6 24.1-9.4 33.1-15.8 3.9-2.8 11.4-9.2 16.7-14.2 20.9-19.8 33.6-38.5 41.7-61.4 11.1-31.6 10.4-60.6-2.2-85.2-7.8-15.3-23.1-27.6-39.7-32-7.9-2.1-25.6-1.8-34.9.6zm30.9 50.7c-4.6 14.3-15.3 32.4-29.7 50.2-27.7 34.2-34.5 42.9-41.5 53.5-8.3 12.5-9.1 12.2-3.5-1.5 6.2-15.1 16.9-31.6 36.8-56.5 15.5-19.4 30.8-40 35.5-47.8 2.1-3.6 4.1-6.2 4.2-5.6.2.5-.6 3.9-1.8 7.7zm-335.3-33.7c-6.7 1.6-11.9 5-19.5 12.8-9.7 9.9-12.2 15.1-12.2 25.3 0 13.6 5.8 25.6 17.9 37.1 12 11.3 24.7 16.9 38.6 17 12.5.1 17.1-1.9 27.8-12.2 10.9-10.5 12.9-14.1 13.5-24.3.9-14.5-5.2-27.6-18.6-39.9-8.5-7.9-16.4-12.3-26.8-14.9-8.1-2.1-14.4-2.4-20.7-.9zm110.6 28.7c-4 1.4-7.1 3.7-12.8 9.4-9.7 9.7-12 14.5-11.8 25.3.1 13.2 5.2 24.4 15.7 34.3 6.2 5.8 11.1 8.5 18.5 10.1 10.1 2.1 15.4 0 25.8-10.4 10.8-10.7 13.7-19.1 10.9-32.2-5.1-24.7-28.2-42.9-46.3-36.5zm-430.1 13.7c-19.4 4.4-30.7 10.8-45.8 25.9-9.2 9.2-11.8 12.5-15 19-3.8 7.8-3.9 8.3-3.9 18.5 0 9.7.3 11.1 2.9 16.6 3.5 7.2 12 15.9 19.6 20.2 10.6 6.1 20.1 8.5 34.6 9.1 27 1 46.8-6.5 65.7-24.7 16.7-16.1 22.2-26.6 21.5-41.3-.4-10.8-4.2-19.1-12.1-27.1-6.2-6.1-17.9-12.5-28.2-15.3-8.3-2.3-31-2.8-39.3-.9zm-150.7 26.9c-.5.2-3.5 1.2-6.5 2.1-8.4 2.6-16.6 8-26.8 17.9-15.4 14.9-22.9 28.5-23.9 43.6-1.4 20.3 10.8 35 29.3 35.2 15.7.1 26.7-5.6 43.5-22.9 9.9-10.1 12.2-13.1 15.7-20.3 4.9-10.2 6.7-18.8 5.9-27.6-1.6-16.8-12.4-27.2-29.2-28-3.8-.2-7.4-.2-8 0zm20 13.6c-1 1.1-2.2 1.7-2.8 1.3-.5-.3.1-1.2 1.4-1.9 3.3-1.8 3.5-1.7 1.4.6zm-13.2 13.5c-3.2 3.5-8.3 10.4-11.3 15.2-14.3 23.1-20.1 31.4-23.2 33.3-3.8 2.3-6.3 2.7-3.1.5 4-2.8 12.1-14 21.4-29.5 11.3-18.9 13.3-21.6 17.8-24 2-1.1 3.7-1.9 3.9-2 .2 0-2.3 2.9-5.5 6.5zM289 669c-2.4 1.5-3.6 1.1-1.4-.4 1-.8 2.1-1.2 2.4-1 .2.3-.2.9-1 1.4zm376.5-74.1c-7.6 2.6-11.2 5.1-20.2 14.5-6.1 6.4-8.5 9.5-9.3 12.8-2.5 9.2 1.3 17.1 10.6 21.8 10 5.1 27 3.3 36.4-3.8 6-4.6 17.2-16.5 18.6-19.9 1.7-3.9 1.8-11.6.3-14.6-5.5-10.8-22.2-15.7-36.4-10.8zM696 612c-.8.5-2.2 1-3 1-1.3 0-1.3-.1 0-1 .8-.5 2.2-1 3-1 1.3 0 1.3.1 0 1zm-50.5 15.9c-.6.5-2.1 1.2-3.5 1.6-2.4.7-2.4.7-.5-.9 2.1-1.6 5.6-2.3 4-.7zm145.5-7.5c-8.1 2.3-12.7 5.4-22 14.8-14.7 15.1-19.8 28.2-18.7 48.2 1.8 32.4 21.7 62.5 48.7 73.7 4.5 1.9 7.4 2.3 16.5 2.3 10 .1 11.5-.2 16.9-2.7 7.8-3.6 23.2-18.6 27.5-26.7 18.3-34.2-.8-87.9-37.4-105.4-11.3-5.5-21.8-6.9-31.5-4.2zm171.5 24.2c-1.6.8-6.4 5.1-10.6 9.4-9.4 9.6-11.4 14.4-11.3 26.5.2 17.6 10.4 30.9 23.5 30.8 6.2-.1 8.1-1.2 17.5-10.8 9.7-9.8 11.9-14.7 11.9-26.5-.1-17.1-10.4-31-23.1-31-2.7 0-6.2.7-7.9 1.6zm9.4 9.2c.1.7-.3 1-.9.7-.5-.3-1-1.8-.9-3.3 0-2.4.1-2.5.9-.7.5 1.1.9 2.6.9 3.3zm-8.5 46.8c.7 1.9.8 5.9.1 5.2-1.1-1-2.3-6.8-1.5-6.8.4 0 1.1.7 1.4 1.6zm-316.9-39.7c-20.4 4.9-33.3 13-54.1 34.3-19.6 20-30 36.9-38.4 62.7-7.1 21.7-8.5 31.2-8.5 58.6.1 21 .4 25.3 2.3 34.3 7.8 36.1 24.1 64.1 47.1 81.2 27.8 20.5 63.1 21.5 93.4 2.6 13.2-8.2 35.3-30.1 44.9-44.7 29.7-44.6 37-105.7 18.8-157.4-12.8-36.3-38.7-63-69-71-9.9-2.6-26.7-2.9-36.5-.6zm23.5 68.4c0 23.7-3.1 39.4-20.4 103.3-3 11.1-6.6 26.2-8.1 33.5-3.9 20-4.5 21.3-3.9 7.4.9-21 4-38.2 13.6-75.5 10.9-42.5 16.8-69.4 16.8-76.5 0-1.4.5-2.5 1-2.5.6 0 1 4.1 1 10.3zm-148.2-64.9c-7.1 2.9-11.5 6.4-21.5 16.9-18.1 19.2-21.6 41.7-8.4 54.8 11.5 11.6 26.7 8.6 44.3-8.6 14.6-14.2 19.8-24.2 19.8-38.3 0-10.2-1.6-14.8-7-20.3-7-7.3-16.6-8.9-27.2-4.5zm17.7 8.6c-1 1.1-2 1.8-2.3 1.5-.3-.3.3-1.4 1.3-2.5s2-1.8 2.3-1.5c.3.3-.3 1.4-1.3 2.5zM504 730.9c0 .5-1.2 1.6-2.6 2.6l-2.5 1.6 1.6-2.5c1.7-2.6 3.5-3.4 3.5-1.7zm-128.5-62.5c-8.3 2.1-13.2 5.2-22.5 14.6-10 10.1-14.1 17.2-16.5 28.5-3.6 17.1 0 36.9 9.8 54.5 6.2 11.1 19.9 24.6 29.7 29.3 20.6 9.8 34.9 7 52-10.4 13.5-13.8 17.5-23.7 17.3-42.9-.1-13.1-2.6-23.1-8.8-35.5-10.6-21-28.1-35.5-46.5-38.5-7.8-1.2-8.1-1.2-14.5.4zM251 717c-8.1 1.7-14.6 5.8-23.5 14.8-13.1 13.1-17.4 23.9-16.1 40.5 2.2 29.2 24.7 58.5 52.8 68.5 10 3.5 23.5 3.6 32.2.2 8.8-3.4 23.3-17.6 28.3-27.7 3.3-6.7 3.7-8.3 4.1-17.7.6-13.6-1.4-22.7-7.9-35.4-10.3-20.4-26-34.5-45.4-41-7.2-2.5-18.4-3.4-24.5-2.2zm690 15.5c-15.7 3.1-29.7 11.3-45.2 26.3-24.1 23.3-35.8 47.1-35.8 72.6 0 17.1 4.8 29.5 15.1 39 13.1 12.2 30.3 15.4 49.8 9.4 13.7-4.2 24.9-11.2 38.4-23.8 12.7-11.9 21-22.7 27.2-35.5 6.8-14 8.5-20.2 9.2-34.5.8-18.7-2.9-30.1-13.5-41.2-11.2-11.7-26.8-16-45.2-12.3zm21.6 39.8c-4.8 10.9-11 18.3-39.2 46.2-24 23.9-27.9 27.4-26.3 23.7 4.8-11 16.6-25.1 37.2-44.5 7.4-7 17.3-17 21.8-22.2 4.6-5.2 8.4-9.3 8.6-9.1.2.2-.7 2.8-2.1 5.9z"/><path d="M484.5 770.4c-8.6 2.8-13.4 6.2-25.1 18-10.9 10.9-12.6 13.1-16.7 21.6-7.2 14.7-9 22.7-9 40 0 12.9.3 15.5 2.7 23.5 3.6 11.8 7.8 19.6 14.8 27.1 10.1 10.8 24.1 16 36.5 13.6 9.8-2 17.5-6.5 27.9-16.4 11-10.5 18-20.4 22.3-31.7 14.2-36.8 2.3-80.2-25.6-93.4-5.8-2.7-8.1-3.2-15.3-3.4-5-.2-10.2.3-12.5 1.1zM814.7 789c-8.2 2.1-14.2 6.2-25.2 17.4-12.2 12.3-16.2 18.7-19.1 31.2-3.8 16.3 2.7 32.2 15.3 37 6.9 2.7 17.3 1.6 25.4-2.7 9.1-4.8 25.2-21.1 30.1-30.5 11-21 7.7-42.7-7.6-50.6-4.5-2.3-13.4-3.2-18.9-1.8zm15.3 10.5c-.7.8-1.7 1.5-2.3 1.5-.5 0-.2-.9.8-2 2.1-2.3 3.5-1.9 1.5.5zm-7 6.8c0 .2-1 1.2-2.1 2.3-2.2 1.9-2.2 1.9-.8-.4 1.2-1.9 2.9-3 2.9-1.9zm-26 50.1c0 .2-.8 1-1.7 1.7-1.6 1.3-1.7 1.2-.4-.4 1.3-1.6 2.1-2.1 2.1-1.3zm-8 9.1c-.7.8-1.7 1.5-2.3 1.5-.5 0-.2-.9.8-2 2.1-2.3 3.5-1.9 1.5.5zm-442.5-10.7c-2.2 1.1-4.7 2.6-5.5 3.5-.8.8-4.3 4.4-7.7 7.9-4.4 4.6-6.5 7.7-7.3 10.9-5.6 20.7 14.6 47.9 35.6 47.9 3.4 0 7.5-.5 9.1-1.1 4.4-1.7 18-15.8 19.9-20.6 2.5-6.4 1.5-18.1-2-25.6-8.4-17.7-29.2-29-42.1-22.9zm459 39.3c-14.8 1.5-32 8.2-47.9 18.6-10.7 7-38.7 35.5-46.5 47.3-12.1 18.1-20.1 36.8-24.3 56.3-3 14.4-3.1 37.5-.1 49.7 4.4 17.6 11.1 29.8 22.1 40.2 19.7 18.5 45.2 23.3 74.3 13.8 19-6.3 33.8-16.3 54.2-36.7 15.4-15.5 23.7-26.6 32.1-43.5 16.3-32.5 20.4-64.7 12-93.7-10.3-35.4-39.7-55.6-75.9-52zm24.4 52.1c-2.7 10-12.5 29.4-20.6 40.7-6.1 8.4-16.4 21.1-40.4 49.6-9.9 11.7-21.8 27.8-25.8 34.9-1.8 3-3.6 5.8-4 6.1-1.7 1 2.2-10.2 6.9-20.2 8-17 15.4-27.2 52.4-72.9 9.2-11.5 20.5-26.4 24.9-33.2 4.5-6.7 8.2-12.2 8.4-12.2.1 0-.7 3.3-1.8 7.2zm-401.8-26.6c-10.2 2.7-17 7.2-28.7 18.9-11.9 11.9-16.2 18.5-20.4 32-3.1 9.9-3.9 30.5-1.5 43 8.9 47.9 44.9 88 86.4 96.2 14.8 2.9 31.5-.2 43.3-8 3-2 9.7-8.1 14.9-13.4 15.1-15.6 20.6-28.5 21.6-50.8.9-20-3.6-39-13.9-58.6-15.7-30.1-41.8-52.2-69.9-59.3-8.1-2-24.3-2-31.8 0zm176.1 66.3c-5.5 1.9-6.4 2.6-16.8 13-7.5 7.5-10.2 12.6-11.5 21.6-3.9 27.5 19.3 59.6 46.5 64.6 12.4 2.2 20.2-.8 31.7-12.3 8.5-8.6 10.5-11.5 12.5-19.3 2.9-10.7 1.2-22-5.3-35.5-3.8-7.9-5.9-10.8-12.7-17.5-8.8-8.7-15-12.6-24.1-15-7.7-2-13.8-1.9-20.3.4zm5.8 120.8c-1.4.2-5.9 2.1-10 4-6.4 3-9.3 5.4-20.1 16.2-10.8 10.9-13.1 13.8-17.2 21.7-14.6 28.6-15.1 64.2-1.2 92.9 16.4 34 46.8 47.1 74.9 32.2 7.6-4 25.5-21.5 31.4-30.7 10.9-16.9 16.4-41.3 14.2-63.5-1.3-14.1-4.2-24.4-9.9-36-6.1-12.3-12.5-20.4-21.5-27.2-9.9-7.4-15.9-9.6-28.1-9.9-5.5-.1-11.1 0-12.5.3zm8.7 77c-.3 1-.5.4-.5-1.2 0-1.7.2-2.4.5-1.8.2.7.2 2.1 0 3zm-1 7c-.3 1-.5.4-.5-1.2 0-1.7.2-2.4.5-1.8.2.7.2 2.1 0 3z"/></g></svg>