<svg version="1.0" xmlns="http://www.w3.org/2000/svg" width="1706.667" height="1294.667" viewBox="0 0 1280 971"><path d="M921.2 41.2c-14.9 29.7-21.9 42.7-31.9 59.3-2.9 4.9-5.8 9.7-6.3 10.5-1.5 2.5-10.4 17-12 19.5-.8 1.3-2.8 4.5-4.4 7.2-1.6 2.6-7.2 10.9-12.5 18.3-5.2 7.4-10.9 15.5-12.6 18-1.7 2.5-5.7 8.1-9 12.4-3.3 4.3-6.7 8.8-7.5 10-.8 1.1-6 7.6-11.5 14.3-9.3 11.4-10.8 12.7-21.8 19.8-6.5 4.1-12.1 7.5-12.4 7.5-.3 0-.2-3.2.2-7 .6-5.7.4-7-.7-7-1.5 0-15.1 8.1-18 10.7-2.8 2.5-2.1.5 2.1-6.6 2.1-3.6 6.3-10.7 9.2-15.6 7-11.8 13.4-24.3 12.7-25.1-.3-.3-2.7 3.2-5.2 7.8-2.6 4.6-6.5 11.2-8.7 14.8-2.1 3.6-4.2 7.2-4.6 8-.4.8-1.8 3.3-3.2 5.5-1.4 2.2-3.7 6.1-5.1 8.7-3.1 5.8-10.2 15.8-11.2 15.8-.5 0-.8-1.2-.9-2.8 0-1.5-.4-3.6-.8-4.6-.7-1.7-1.7-1.1-8.3 5.3-9.3 8.7-14.3 15.2-19.6 25l-4 7.4-.8-3.9c-1.2-6.2-.9-8.8 1.3-12 1.1-1.6 6.7-10.8 12.4-20.4 13.6-23.2 55-84.8 64-95.3.5-.7 5.2-7 10.5-14.1 11.5-15.6 21.7-28.9 22.5-29.6.4-.3 3-3.7 5.9-7.5 5.4-7.2 13.4-17.1 20.5-25.6 2.2-2.6 6-7.3 8.5-10.4 2.5-3.1 7.2-8.6 10.4-12.1 3.3-3.5 5.7-6.7 5.3-7-.9-.9-4.8 2.4-10.7 9.4-3 3.5-6.5 7.4-7.7 8.6-1.3 1.1-2.3 2.5-2.3 3s-1.9 3-4.2 5.6c-6.1 6.6-34.3 41.2-41.8 51.1-30.4 40.3-39.6 52.8-49.5 67.4-21.1 30.8-31.7 47-39.2 59.6-12 20.1-17.2 28.6-22.9 37.4-2.8 4.4-6.4 10.5-8 13.5l-2.8 5.5-1.1-4.4-1.1-4.4-4.7 5.5c-6.2 7.3-13.7 19.8-16.2 27-1 3.2-2.2 5.8-2.6 5.8-.8 0-2.4-8.7-2.1-11.3.4-3.9 29.9-62.9 43.2-86.7 15.1-26.7 16.3-28.9 24.7-43 13.7-22.9 43.2-69.3 44.4-69.8.5-.2.9-.9.9-1.6 0-.7.9-2.1 2-3.1s2-2.2 2-2.7c0-.9 15.1-23.4 19.4-29 1.2-1.5 4.1-5.7 6.6-9.4 2.5-3.6 6.9-9.8 9.8-13.7 2.8-3.9 5.2-7.4 5.2-7.8 0-2.4-11 11.6-23 29.1-1.9 2.8-5.1 7.3-7 9.9-1.9 2.6-3.9 5.4-4.5 6.3-.5.9-2.8 4.2-5 7.3-2.2 3.2-4.7 6.7-5.5 8-6 8.9-7.6 11.2-8.5 12.6-.9 1.5-2.2 3.4-9.4 14.3-7.4 11.2-29.7 46.4-34.2 54-2 3.4-7.1 12.2-11.4 19.6-4.2 7.4-9 15.5-10.5 18-5.2 8.2-30.3 56.8-41.4 80-2.3 4.7-6.8 12.5-10 17.3-6 9-12.1 21.7-13.2 27.4-.9 4.7-2.1 4.1-2.9-1.5-1-7.7-1.7-7.9-6.2-2.5-9.9 11.9-16.1 23.2-20.3 37-1.2 4-2.5 7.1-3 6.8-.4-.2-1.3-4.1-2-8.6l-1.3-8.1-4.9 4.9c-5.2 5.1-13.2 16.1-16.7 23-2.4 4.9-4 6.1-5.2 4.2-1-1.5-.2-6.8 1.2-8.4.5-.5.9-1.5.9-2.2 0-1.5 12.2-30.7 18.6-44.3 46.1-98.6 97.4-174.6 169.9-251.9 3.6-3.9 4.8-5.6 3-4.4-4.8 3.3-33.1 33.4-45.9 48.8-3.7 4.4-8.6 10.2-11 13-4.4 5.2-17 21.4-24.3 31.3-13.8 18.7-17 23.2-22.1 31-3 4.8-5.8 8.9-6.2 9.2-.8.7-18.5 28.5-24.9 39.2-13.9 23.3-37.5 68.7-48.6 93.8-2.5 5.8-5.5 12.3-6.4 14.5-1 2.2-2.8 6.5-4.1 9.5-1.2 3-2.8 6.8-3.5 8.5-.7 1.6-1.7 4.1-2.2 5.5-.6 1.4-3.7 6.1-7 10.5-7.6 10.1-13.6 22.5-17 35.1-2.4 8.9-2.6 11.7-2.7 27.4 0 19.1 1.6 29.3 7.3 47.1l2.9 8.9-14.5 13.7c-14.5 13.7-36.9 37.1-49.3 51.3-3.6 4.1-8.3 9.5-10.5 12-3.4 3.8-10.9 12.7-13.8 16.5-3.4 4.5-7.2 7.5-18.5 15-2.3 1.5-9.3 9.2-13.5 14.8-4.2 5.5-12.2 21.4-13.3 26.2-.4 1.9-3.7 6.2-8.8 11.3-7.1 7.3-43.3 41.8-58.4 55.7-5.1 4.7-5.8 5-21.5 9.2-55.1 14.6-166.2 35.6-247.7 46.7-19.3 2.7-59.5 7.6-61.9 7.6-1.1 0-1.3 1.8-.7 10.2.4 5.7.9 10.4 1.1 10.7 1.1 1 66.9-5.9 104.5-11 30.5-4.1 71.1-10.8 102.9-16.9 14.5-2.8 26.5-4.9 26.7-4.8 1.3 1.3-99.9 43.9-142.9 60.2-8.2 3.1-16.3 6.3-18.2 7l-3.3 1.4 2.5 9.9c1.3 5.4 2.6 10 2.8 10.2.5.5 31.1-10.3 62.1-21.9 30.2-11.4 61.1-23.9 90.8-36.9 11.5-5 21-9 21.2-8.9.7.8-20.5 17.7-25.4 20.2-31.9 16.3-117.8 53.7-191.2 83.1-16.2 6.5-29.6 11.9-29.8 12-.1.1 1.4 3.9 3.4 8.4 2.3 4.9 4.2 8 4.9 7.7.7-.2 8.3-2.5 16.9-5 30.1-8.9 81.5-28.2 126.1-47.4 80.4-34.5 171.7-82.1 244.6-127.5 1.3-.8 2.9 0 7.5 4 13.8 11.9 32.9 22.3 48.4 26.4 6.4 1.7 11.3 2.3 20 2.3 17.1.1 27.7-3.1 42.5-12.9 5.3-3.5 9.5-5.5 12.5-5.9 9.3-1.4 31-5.8 46-9.2 23.2-5.4 57.2-15.4 79-23.4 24.9-9 26.4-9.6 31.3-11.8 2.7-1.2 5.1-2.2 5.3-2.2.3 0 2.6-.9 5.2-2.1 2.6-1.1 5.8-2.5 7.2-3.1 7-3.1 9.4-4.1 20.5-9.4 6.6-3.2 14.9-7.2 18.5-8.9 9.5-4.5 25.1-13.2 28-15.6 3.5-2.9 3.4-2.8-24.5 11-13.7 6.8-26.6 13-28.5 13.9-1.9.8-4.3 1.9-5.2 2.3-1 .5-2.5.9-3.3.9-.8 0-1.5.4-1.5 1 0 .5-.5 1-1.1 1-1.1 0-21.8 7.9-27.5 10.6-4.1 1.8-36.4 13.1-42.9 14.9-2.7.8-9.5 2.8-15 4.5-19.7 6-63.6 16.1-84 19.4-1.6.2-4.4.7-6.1 1.1-2.3.5-4.4 0-8.5-2.1l-5.4-2.7 7-1.4c11.9-2.5 30.5-10.9 30.5-13.9 0-.8-.9-2.4-2-3.6-1.1-1.2-1.8-2.3-1.6-2.5.2-.2 5.6-1.2 12-2.3 7.5-1.3 14.8-3.3 20.4-5.6 4.8-2 17-6.4 27.2-9.9 20.4-6.9 54.3-20.2 67.8-26.6 24.6-11.7 48.3-23.7 63.6-32.3l4.8-2.8 7.7 3.5c13.2 6.1 20.5 7.9 33.6 8.4 14.7.7 24.2-1.4 38-8.1 8.7-4.2 9.4-4.4 21-4.9 28-1.4 53.5-4.3 82-9.3 1.7-.3 6.8-1.2 11.5-2 14.7-2.5 64.1-14.2 71-16.8 1.9-.8 3.7-1.4 4-1.3 1 0 12.6-3.5 19.5-5.9 3.9-1.4 8.1-2.7 9.4-3 1.3-.3 3.6-1.1 5.2-1.9 1.5-.8 3.4-1.5 4.1-1.5.7 0 3.6-.9 6.5-2s7.9-3 11.1-4.2c9.6-3.6 19.2-8 19.2-8.9 0-.4-3.5.6-7.7 2.2-16.3 6.3-17.9 6.9-19.4 6.9-.8 0-1.9.4-2.5.9-.5.5-7.6 3-15.9 5.6-8.2 2.6-16.8 5.3-19 6-2.2.7-9.4 2.7-16 4.5-6.6 1.7-14.2 3.8-17 4.6-2.7.8-7 1.8-9.5 2.3-2.5.5-10.8 2.3-18.5 3.9-7.7 1.6-16.1 3.3-18.7 3.6-2.6.4-5.3.9-6 1.1-4 1.4-42.2 6.4-61.3 8-3.8.3-8.8.8-11 1-2.2.2-10.1.6-17.5 1l-13.5.6-4.9-2.9-4.8-2.9 6.8-.7c12.5-1.3 32.4-7.5 32.4-10.2 0-.8-.7-2.6-1.6-3.9-2.1-3.2-1.9-3.2 12.6-3.8 8.2-.4 14-1.2 20-3 4.7-1.4 13.5-3.5 19.5-4.7 6.1-1.2 13-2.6 15.5-3.2 2.5-.5 5.4-1.1 6.5-1.3 1.1-.3 7.2-1.8 13.5-3.4 32.9-8.4 49.3-13.5 84-26.3 13.5-5 15.9-5.9 21.5-8.4 1.7-.8 13.6-6.1 26.5-11.9 23.7-10.7 38-18.1 38-19.8 0-.5-2.4.4-5.2 2-10.1 5.7-66.1 30.3-68.8 30.3-.6 0-1.8.5-2.8 1-1.9 1.2-22.6 8.6-28.2 10.1-1.9.6-4.4 1.4-5.5 1.9-2.5 1.1-21.8 6.9-34.5 10.4-21.1 5.7-33.4 8.6-51.8 12.2l-19.3 3.8-2.5-2.6-2.5-2.5 9.4-.6c7.8-.5 24.7-4.5 26.6-6.3.2-.2-.3-1.2-1.2-2.2-2.5-2.7-2.1-3.2 2.1-3.2 8.8 0 30-7.8 37.1-13.6l2.3-2-6.3-3.9-6.4-3.9 4.4-.8c9.9-1.7 20.2-6.1 30.4-13 3.2-2.2 8.6-4.9 12-6 3.4-1.1 7.1-2.3 8.2-2.8 1.1-.4 8.8-3.1 17-5.8 8.3-2.8 17.9-6.2 21.5-7.5 3.6-1.4 9.6-3.7 13.4-5.1 3.8-1.4 7.4-3 8-3.5.6-.4 2.9-1.4 5.1-2.1 2.2-.7 6-2.2 8.5-3.4 2.5-1.2 6.5-3.2 9-4.3 15.2-7 36.7-17.7 38.8-19.3 3.2-2.6 1.3-2.6-3-.1-3.9 2.3-35.8 16.9-47.8 21.8-4.7 1.9-9.8 4.1-11.5 4.8-2.9 1.3-20.2 7.8-27.5 10.4-19.9 7-36.2 12.3-41.5 13.6-5.7 1.5-6.7 1.5-8.5.2-2-1.4-1.7-1.6 5.2-3.7 8.9-2.7 15.5-6 23.3-11.5 6-4.3 15.3-13.2 14.4-13.8-.2-.2-1.5-.8-2.9-1.4l-2.5-1.1 3-.6c10.4-2.4 48-12.4 51-13.7 1.1-.4 7.6-2.6 14.5-4.8 35.9-11.3 85.1-31.7 110.8-45.9 15.4-8.6 7-6.1-10 2.8-3 1.6-32.2 14.6-35.8 16-1.9.7-5.8 2.3-8.7 3.6-2.8 1.3-5.8 2.4-6.6 2.4-.7 0-1.7.3-2 .6-.4.4-2.8 1.5-5.4 2.4-2.7.9-9.7 3.5-15.8 5.7-22.9 8.5-65.5 20.8-87.5 25.3-2.5.6-6.3 1.4-8.5 1.9l-4 1 2.5-2c10.4-8.2 13.7-11.2 18.7-17.4 3-3.8 6.9-9.3 8.5-12.2 1.6-2.8 3.4-5.6 4.1-6.1.7-.5 5.9-2.1 11.7-3.7 17.7-4.7 28.2-7.7 31.7-9.1 1.8-.8 5.7-2.1 8.5-2.9 6.3-1.7 23.6-7.6 32.8-11.1 11.5-4.5 33.4-13.5 38.5-16 2.8-1.3 12.2-5.6 21-9.7 16.2-7.4 29.3-14.7 26.5-14.7-.8 0-3.4 1.1-5.7 2.4-6.3 3.6-42 19.7-55.8 25.1-6.6 2.6-12.9 5.1-14 5.6-3.3 1.4-21.1 7.7-34 12-19.3 6.5-63.1 18.6-64 17.7-.2-.2 3.3-2.1 7.8-4.2 27.1-13 40.7-20 42.4-21.8 2.2-2.5 2.9-2.8-12.7 4.9-17.5 8.5-33.5 16.1-40 18.8-4.8 2-6.6 2.2-14.2 1.8-4.9-.3-8.8-.7-8.8-.9 0-.1 2.5-3.6 5.5-7.6 3-4 7.1-10.5 9-14.5 3.5-6.9 3.8-7.2 9.8-9.7 12.3-5 49-18.1 68.2-24.2 6.1-2 17.1-5.5 24.5-7.9 7.4-2.4 15.5-5 18-5.6 3.4-1 3.9-1.4 2.3-1.7-2-.3-22 4.7-26.8 6.8-1.1.4-6 2-11 3.5-16.7 5.1-66.7 22-72 24.4-6.4 2.8-7.5 3.1-7.5 1.7 0-2 1.1-2.7 16.5-10.6 47.7-24.6 93.5-54.3 133-86 23.1-18.6 39.5-33.2 39.5-35.3 0-.6-1.7.5-3.7 2.5-3.2 3-14.6 12.6-20.3 17.1-.9.7-4 3.2-7 5.7-8.3 6.9-23.9 19-24.5 19-.2 0-1.3.7-2.2 1.5-3.8 3.1-16.1 12-22.3 16.1-3.6 2.4-7.4 5-8.5 5.7-7.8 5.4-23.8 15.5-33.3 21.1-23.7 13.8-32.6 18.6-53.2 28.8l-16.5 8.1-14.5 1.7c-8 1-14.7 1.6-14.9 1.4-.2-.2.8-3.2 2.2-6.5l2.7-6.2-10.3.5c-5.6.3-11.1.9-12.2 1.3-3 1 1.5-2.8 11-9.5 10.7-7.5 24.4-17.9 26.7-20.2 3.7-3.7.9-3-3.9.9-4.4 3.7-25.3 18.5-29.2 20.8-.9.5-3.5 2.4-5.6 4.1-4.6 3.6-14.6 9.4-16.3 9.4-.7 0-.8-1-.1-3.2 1.4-5 1.2-6-1.1-5.4-1.1.3-3 .9-4.2 1.2-1.3.3 4-2.9 11.7-7.1 7.7-4.3 18.3-10.2 23.5-13.3 5.2-3.1 10.4-6.1 11.5-6.7 2-1.1 11.9-7.5 28.5-18.4 8.9-5.8 21.7-14.9 30.1-21.4 2.6-2 5.1-3.7 5.5-3.7.7 0 15.4-12 19.3-15.7 4.2-4 1.6-3.5-3.7.7-4.6 3.7-9.3 7.2-18.2 13.5-1.9 1.4-6 4.3-9 6.5-7.6 5.6-31.9 21.6-41.5 27.5-4.4 2.6-10.3 6.3-13.1 8.1-2.7 1.8-6.8 4.1-9 5.1-2.1 1-4.1 2.1-4.4 2.4-1.3 1.5-47.3 25.3-56.5 29.2-2.2.9-5.5 2.3-7.2 3.1-3.3 1.5-4.4.7-2-1.4.6-.6 3.7-2.9 6.7-5.1 3-2.1 6-4.3 6.7-4.9 2.7-2.2 41.3-27.1 52-33.6 20.1-12.1 35.4-20.9 44.8-25.9 5-2.6 9.5-5.1 10-5.5 3.4-2.5 57.3-29.7 77-38.9 7.2-3.4 15-7.2 17.5-8.5 2.5-1.3 6.9-3.1 9.8-4.2 2.8-1 5.2-2.2 5.2-2.7 0-2-10.5 1.8-31 11.5-5.2 2.5-12.9 6-17 7.9-8.7 4-60.5 29.9-70 35.1-3.6 2-11.9 6.5-18.5 10-6.6 3.6-21.9 12.5-34 19.8-12.1 7.3-23.6 14.2-25.5 15.4-3.9 2.3-26.3 17.4-50 33.6-9.5 6.5-19.8 13-20.6 13-.6 0-.9-1.4-.6-3 .2-1.6.1-3-.3-3-1.8 0-13.6 6.3-19.4 10.3-5.9 4.1-6.6 4.4-9.7 3.4-1.9-.6-3.4-1.3-3.4-1.7 0-.3 2.6-1.7 5.8-3 9-3.7 27.2-15.6 27.2-17.8 0-.4-.7-1.8-1.6-3-1.5-2.1-1.4-2.4.8-4.2 1.3-1 3.7-2.2 5.3-2.6 4.7-1 18.6-7.7 25.1-12.1 3.3-2.2 9.6-5.9 14-8.1 4.5-2.3 13.7-7.3 20.5-11.3 12.1-6.9 14.1-8.1 24.3-14.4 5.8-3.5 40.2-26.7 49.7-33.4 3.6-2.5 11-8.2 16.4-12.6 5.5-4.4 13.7-11.1 18.5-14.8 21.6-17.4 50.2-43.8 48.8-45.3-.3-.2-4.5 3.1-9.4 7.5-5.4 4.8-12.2 9.7-17.4 12.4-4.7 2.4-10.1 5.4-12 6.5-1.9 1.2-6.2 3.6-9.5 5.5-3.3 1.8-10 5.8-15 8.7-4.9 2.9-10.7 6.3-12.7 7.4-2 1.2-6.9 4.1-11 6.6-4 2.5-7.7 4.7-8.3 5-.5.3-2.8 1.7-5 3.1-2.2 1.5-9 5.8-15.1 9.7l-11.1 7.1-6.7-2.2c-3.6-1.1-6.6-2.4-6.6-2.7 0-.3 1.9-1.6 4.3-2.9 7.3-4.2 15.2-10.8 22.1-18.5 6.4-7.1 7.2-7.6 16.9-11.4 5.6-2.2 11.9-4.5 14-5.2 2-.6 3.7-1.4 3.7-1.6 0-.9-7.5.8-13.7 3.2-3.5 1.3-6.3 2.1-6.3 1.9 0-.2 3.9-3.1 8.8-6.3 15.3-10.2 46.3-34.3 62.2-48.2 5.3-4.7 12.3-10.7 15.6-13.4 8.2-6.8 23.7-22.6 23-23.4-.4-.3-3.2 1.9-6.4 4.9-17.5 16.9-54.9 48-71.2 59.1-1.4 1-5.6 4-9.5 6.8-3.8 2.7-7.8 5.6-8.9 6.3-1 .6-4.4 3-7.5 5.2-9.5 6.8-16.1 10.5-18.7 10.5-3.6 0-2.9-1.2 2.8-4.5 7.7-4.5 20.7-17.9 26.6-27.5l5.2-8.4-2.7-1.1-2.7-1.1 5.4-3c14.8-8.2 40-24.4 58.7-37.7 4-2.9 9.2-6.5 11.5-8.2 4.6-3.2 20-14.7 20.8-15.5.3-.3 3-2.4 6-4.7 3-2.3 6.7-5.2 8.2-6.5 1.5-1.3 4.8-4.1 7.5-6.3 17.5-14.6 43.3-38.9 43.3-40.7 0-.6-2.8 1.5-6.3 4.8-30.4 28.5-79.1 66-115.2 88.6-7.7 4.8-14.5 9.1-15.1 9.5-2.3 1.7-8.8 5.5-24.7 14.3l-5.7 3.2 5.4-7.6c6.5-9 11.5-19.3 15.1-30.9 2.5-7.8 2.9-8.6 6.8-10.7 2.3-1.3 6.3-3.8 8.8-5.7 2.6-1.8 4.9-3.3 5.2-3.3.9 0 14-8.3 19.7-12.6 3-2.2 8.7-6.1 12.5-8.8 17.1-11.5 43.2-31.3 43.9-33.2.3-.8 1-1.4 1.6-1.4.5 0 1.9-.8 2.9-1.8 1.1-.9 3.9-3.3 6.2-5.2 13.8-11.1 42.9-38.5 42.9-40.3 0-.7-12.3 9.7-31 26.3-12.1 10.7-34.9 28.9-46.6 37-1.2.8-8.2 5.8-15.5 11.1-7.4 5.3-19.7 13.6-27.4 18.4-7.7 4.8-16.2 10.2-19 12-5.4 3.6-12.6 7.3-11 5.8.6-.6 7.8-7.1 16-14.5 18.1-16.4 27.1-25.5 26.2-26.5-.4-.4-3.3 1.8-6.5 4.9-7 6.8-36.5 33.1-41 36.6-2.5 1.9-15.1 5.9-19.3 6.2-.4 0 1-4.2 3.1-9.3 2.1-5 4.6-12.7 5.6-17 2-8.7.6-7.1 18.1-20.4 6.9-5.2 22.3-16.5 26.3-19.3 1.2-.8 3.7-2.6 5.6-4 11.2-8.4 17.4-12.8 29.8-21.1 7.6-5.2 16.9-11.3 20.7-13.7 6.9-4.4 9.3-7.2 4.2-5-3.7 1.6-16 9.2-25.6 15.9-4.3 3-10.2 7-13.1 8.9-2.9 1.9-7.2 4.7-9.5 6.3-4.4 2.9-19.9 14-21.7 15.6-.6.4-2.8 2-5 3.5-6.5 4.3-16.8 11.9-21.6 15.8-4.9 4.2-5.8 4.5-5.8 2.4 0-.8 2.6-3.8 5.8-6.7 7.1-6.6 40.7-40.4 48.2-48.5 8.2-8.9 18.1-20.1 24.1-27.4 3-3.6 5.6-6.7 5.9-7 .6-.5 8.9-10.8 13-16 1.1-1.4 3-3.9 4.3-5.5 4.1-5.2 18-24.1 21.7-29.4 1.9-2.9 4-5.7 4.6-6.4 1-1.1 2.7-3.7 14.4-21.2 5.3-7.9 9.4-15.5 8.7-16.1-.3-.3-1.5 1.2-2.8 3.3-3.5 5.9-26.6 38.9-33.1 47.3-3.1 4.1-6.4 8.4-7.3 9.5-26.5 34.9-69.5 81.7-101.1 110.1-10.5 9.4-11.7 10.2-24.3 15.6l-13.3 5.6.6-3.6c.3-2.1.9-5.4 1.2-7.4l.6-3.7-3.8 1c-2.2.6-7.2 2.6-11.2 4.5l-7.3 3.3 2.2-3.2c1.2-1.8 2.7-3.7 3.3-4.2.7-.6 2.5-2.8 4.1-5 1.6-2.2 3.6-4.7 4.5-5.5 1.9-1.7 14.8-19.3 16.8-22.9 2.7-4.7.3-3-4.4 3.1-2.6 3.5-6.1 7.9-7.8 9.9-4.5 5.2-6.7 7.9-10.5 12.9-1.9 2.5-3.9 4.9-4.5 5.5-.6.5-2.4 2.8-4 5-3.9 5.2-12.7 14.5-13.9 14.5-.4 0-.5-2-.1-4.5.4-3.2.3-4.5-.6-4.5-2.3 0-15.6 9.4-22.2 15.8-3.7 3.5-8.4 9-10.5 12l-3.8 5.5-.3-5.7-.3-5.7 8.2-10.2c36.2-44.8 69.7-80 132.7-139.6 7-6.5 41.2-37.1 46.3-41.2 4.7-4 4.9-6.2.2-3.3-3.1 2-12 9.3-19.9 16.4-2.8 2.5-7.9 7-11.3 10-3.5 3-7.3 6.4-8.5 7.5-1.3 1.1-5.6 4.9-9.6 8.5-4 3.6-8.6 7.6-10 9-44.9 42.1-83 81.1-110.6 113.2-13 15.2-36.1 42.8-42.4 50.8l-5.5 7-1-4.2-1.1-4.2-8.6 8.5c-7.7 7.6-17.8 21.1-17.8 23.8 0 .6-.4 1.1-1 1.1-.9 0-1.5-5.6-1.2-10.1.1-.9 3-5.9 6.5-11 12.9-19 25.1-36.6 30.1-43.4 2.8-3.9 5.8-8 6.6-9.1 9.1-13 46.6-60.1 56.1-70.5 1.3-1.4 4.4-5 6.9-8 5.3-6.4 23.5-27 37.4-42.4 9.7-10.6 12.7-13.8 36.2-38.3 10.7-11.1 13.7-14.9 9.6-12-3.8 2.6-20.4 19-35.7 35.3-8.2 8.7-16.6 17.5-18.5 19.5-1.9 1.9-6.6 7.1-10.5 11.5-3.8 4.3-8.3 9.3-10 11-1.6 1.8-4.1 4.5-5.4 6.1-1.4 1.6-7 8.1-12.5 14.4-15.7 18-19.1 22-24.6 29-2.8 3.6-5.7 7.2-6.3 8-31 38.7-38.8 49.3-64.8 87.5-4.5 6.6-10.9 14.9-14.2 18.4-6.3 6.8-13.6 17.4-16.6 24.2-1.7 3.7-1.9 3.8-2.5 1.7-.3-1.3-.6-4-.6-6.1 0-2-.5-3.7-1.1-3.7-1.9 0-18.6 17.4-22.5 23.5-2.2 3.3-5.3 9.1-6.9 12.8-1.7 3.6-3.3 6.7-3.7 6.7-.5 0-.8-2.8-.8-6.3v-6.2l6.9-7c5.7-5.9 11.9-12.9 29.4-33.5 1.2-1.4 4.1-4.9 6.5-7.8 2.4-3 5.3-6.5 6.5-7.9 4.5-5.1 13.7-18.6 13.1-19.2-.3-.3-1 .2-1.6 1.2-.5 1-3.6 5-6.9 9-3.3 4-9.7 11.7-14.2 17.1-17.3 21-39.5 44.9-40.8 44.1-1.6-1-16 11.7-22 19.4-6 7.8-8.9 9.9-8.9 6.5 0-.8 1.3-3.4 2.9-5.7 1.5-2.3 4.7-8 7.1-12.7 6.5-13.1 13.1-23.9 16.5-27.1 7.3-6.8 10.6-9.7 15.6-13.9 9.3-7.8 35.8-33.7 51.1-50 9.1-9.7 21.9-23.8 24-26.5 1.2-1.6 3-3.7 3.8-4.6.8-.8 4-4.6 7-8.4 3-3.8 6.2-7.6 7-8.4 2.3-2.4 14.3-18.2 16.3-21.4 2.9-4.5.3-3-3.2 1.9-1.8 2.5-5 6.4-7 8.8-2 2.3-5.4 6.4-7.6 9.1-21.7 26.4-64 70.8-84 88-3.9 3.3-9 7.9-11.5 10.2-2.4 2.3-4.6 4-4.8 3.8-.4-.3 17.5-26.9 20.4-30.4.7-.9 4.8-6.3 9.1-12.1 22.5-30.7 49.6-62 78.8-91.4 12.7-12.7 32.4-31.4 38.6-36.6 1.3-1.1 3.3-2.8 4.4-3.8 9.2-8.1 40.6-33.5 47.3-38.1 3.9-2.7 4.3-4.9.5-2.4-4.6 2.8-19.7 13.6-20.8 14.8-.5.6-2.7 2.4-4.8 4.1-9.2 7-25.3 20-27.8 22.4-.8.8-5.1 4.6-9.5 8.5-23.8 21.1-48.5 45.8-71.9 72-4.4 5-8.2 9.2-8.6 9.5-1 .9-21.2 26.2-28 35-10.4 13.5-25.2 34.3-36.7 51.5-5.3 8-9 12.3-13.5 15.7-3.3 2.7-6.2 4.8-6.3 4.8-.2 0 1.4-3.3 3.6-7.3 4.9-9.2 9.5-22.7 11.4-34.2 1.3-7.6 2-9.4 4.3-11.4 3.7-3.1 13.3-11.5 19.7-17.1 12.6-11.2 43.2-41.6 56.2-56 3.3-3.6 7.6-8.4 9.7-10.7 2.1-2.2 4.8-5.4 6-7 1.2-1.6 3.3-4.1 4.7-5.7 1.4-1.6 4.5-5.2 6.8-8 2.4-2.8 5.4-6.2 6.6-7.6 2.8-3.2 13.6-17.6 16-21.3 2.9-4.7 1.2-4-2.3.9-1.8 2.5-5 6.4-7 8.8-2 2.3-5.6 6.6-8.1 9.6-20.5 24.5-32.3 37.3-54 59-9.6 9.7-21.8 21.4-27 26-5.2 4.7-9.7 8.7-10 9-1.6 1.8-23.1 20-23.5 20-.8 0 1.3-3.7 2.2-4.2.5-.1 2.4-2.3 4.3-4.8s4-5 4.5-5.5c.6-.6 2.4-2.8 4-5s3.4-4.5 4.1-5c1.5-1.3 14.5-18.5 16.2-21.4 2.6-4.6.4-3-3.9 2.6-2.3 3.2-6.1 8-8.3 10.7-6.2 7.3-10.7 12.8-14.8 17.7-15.8 19.1-14.3 17.9-27.2 23-4.4 1.8-4.8 1.8-4.2.2 1.8-4.6 4.7-17.7 5.6-25.8 1-7.8 1.5-9.4 4.5-13 8.3-10.1 77.9-78.7 88.5-87.4 3.3-2.7 1.6-2.7-2.3.1-7.2 4.9-35.3 31.4-65.9 62.1-18.5 18.4-23.8 23.2-23.8 21.4 0-1.3 2.5-5.3 5.8-9.3 10-12.3 42.3-57 45.3-62.7.7-1.2 4.1-6.6 7.6-12 3.5-5.3 7.6-11.9 9.1-14.5 1.5-2.6 4-6.7 5.5-9.2 11-17.9 24.8-43.4 38.5-71.3 7.4-15 13.8-29.7 12.8-29.7-.1 0-5.8 10.9-12.4 24.2zM1123 319.1c-22.9 20.4-63 50-93.4 68.9-4.9 3-11.4 7.1-14.5 9.2-10.5 6.8-50.3 27.7-51.7 27.1-2.7-1-.8-2.8 7.7-7.1 12.6-6.4 21.1-12.3 19.7-13.9-.6-.8-.9-1.5-.7-1.7 1-.7 33.4-22.8 37-25.1.9-.6 4.9-3.2 9-5.9s9.7-6.3 12.4-8.1c20.1-12.9 25.3-16.2 27.5-17.3 1.4-.7 5.2-3 8.5-5.1 3.3-2.2 12.5-7.7 20.5-12.2 8-4.6 16-9.4 17.9-10.6 5.1-3.5 5.1-2.7.1 1.8zm-357.5 119c-1.6 1.7-31.2 24.5-34.1 26.2-.7.4-2.6.2-4.4-.4l-3.2-1.2 6.1-3.2c8.2-4.4 24.1-17.3 24.1-19.6 0-.4-1.2-1.1-2.7-1.6l-2.6-.9 4.4-2.7c2.4-1.4 6.2-4.2 8.4-6.1l4-3.4.9 5.4c.7 4.6.6 5.8-.9 7.5zm1.5 5.3c0 .3-.4.8-1 1.1-.5.3-1 .1-1-.4 0-.6.5-1.1 1-1.1.6 0 1 .2 1 .4zm3.2 13.4c1 4.8 2.1 9.8 2.3 11.2.5 2.2-.6 3.4-9.6 9.9-14.8 10.9-32.2 22.2-33.6 21.7-.6-.3-1.9.5-3 1.6-2.3 2.6-11.2 8.7-18.4 12.6-3 1.6-10.2 5.7-16 9.1-10.6 6.1-12.7 6.7-19.4 5.2l-3-.6 5.5-3.2c6.7-3.8 19.4-14.5 23.4-19.8 2.4-3 2.7-4.1 1.8-5.5-.9-1.5-.7-2.1.7-3.2 1-.7 7.2-5.4 13.8-10.4 20.9-15.9 52.5-38.3 53.3-37.7.2.2 1.2 4.3 2.2 9.1zm198.8 5.1c-3.8 3.1-4.4 3.3-3.4.8.5-1.3 3.8-3.2 6.4-3.6.2-.1-1.1 1.2-3 2.8zm-182.1 32.2c2.8 1.8 5.1 3.5 5.1 3.8 0 .4-3.5 4.1-7.7 8.3-5.7 5.5-10.1 8.7-16.3 11.9-4.7 2.4-8.7 4.6-9 4.9-1.1 1.4-14.7 12.7-17.3 14.4-2.3 1.6-21.7 6.9-22.5 6.2-.1-.2 8.2-7.3 18.5-15.8 10.4-8.6 24.2-20.3 30.8-26.1 6.6-5.9 12.3-10.6 12.7-10.7.4 0 2.9 1.4 5.7 3.1zm18.4 9.9c2 .8 3.7 1.6 3.6 2 0 .3-2.7 1.8-6.1 3.5-3.3 1.6-8.6 4.9-11.7 7.2-3.1 2.3-6.4 4.3-7.3 4.3-2.3 0-2.3-2.9.1-5.7 2.2-2.6 16.4-13.4 17.1-13 .3.1 2.2.9 4.3 1.7zm-76.8 3c-.5.8-28.1 22.4-32.5 25.4-1.7 1.2 9-8.8 13.5-12.6 2.9-2.5 18.7-13.7 19.3-13.8.2 0 .1.4-.3 1zm92.3 8.6c-3.4 4.8-5.4 5.7-4.4 2.1.3-1.2.6-2.7.6-3.4 0-1.4 5.1-4.4 6.3-3.6.4.2-.7 2.4-2.5 4.9zM696 529c-7.5 7-17.8 15-19.1 15-1.7 0-.9-3.9 1.4-6.4 1.8-2.1 22-14.5 23.7-14.5.3 0-2.4 2.7-6 5.9zm-161.7 30.7c-39.5 44.2-73.7 80.1-74.1 77.9-.9-4.5 33.7-44.6 68.1-79 16.7-16.7 20.1-19.7 20.9-18.2.8 1.3-2.1 5-14.9 19.3zm33.5 4.5l7.1 3.3-7.2 7.6c-4 4.2-9.8 9.5-13 11.9-6.6 4.9-13.4 12.1-18.3 19.5l-3.4 5v-13.7l-4.7 2.8-4.7 2.7 2.9-3.5c18.9-22.4 33-38.8 33.6-38.8.3 0 3.8 1.5 7.7 3.2zm16.3 5.9c1.9.6 4 1.3 4.7 1.5.9.2-.5 1.9-3.5 4.2-4.9 3.9-10 9.3-14 14.7l-2.2 3-.1-5.9c0-5.7.1-6 5.6-12.2 3.1-3.5 5.7-6.4 5.8-6.4.2 0 1.8.5 3.7 1.1zM728.5 650c1 1.1 1.6 2.2 1.4 2.4-.6.6-17.7 8.5-24.4 11.2-4.4 1.8-7 2.3-9.5 1.9-3.5-.7-3.4-.7 6.5-5.6 5.5-2.7 12.5-6.5 15.5-8.4 6.2-4 8-4.3 10.5-1.5zm7.6 7.6c2.9 3.2 17.5 14.6 20.8 16.4 2.1 1.1 2.2 1.4.9 2.7-2 1.9-12.6 7.6-31.8 16.9-8.5 4.2-16.6 8.1-18 8.8-13.2 6.9-49.8 21.5-75.8 30.2l-23.2 7.8-3.6-1.9-3.7-2 8.7-1.7c8.5-1.7 21.9-6.5 25.8-9.2 2-1.4 2-1.4-.1-2.5-2.6-1.4-2.7-3.1-.4-3.1 1 0 5.2-1.1 9.4-2.5 8.1-2.7 16-7.1 24.8-13.7l5.5-4.1-6.2-3.1c-3.4-1.7-6.2-3.3-6.2-3.6 0-.4 2.4-1.4 5.3-2.3 7.6-2.5 18.3-8.7 25.7-15.2 3.6-3.1 7.9-6.2 9.5-6.9 6.3-2.8 17.2-8 22.5-10.7 6.9-3.4 7.1-3.5 10.1-.3zM385 767.4c0 .9-55.1 30.8-55.6 30.3-.2-.1 3.2-3.3 7.4-7 8.9-7.7 25.2-16.6 38.2-20.8 8.9-2.9 10-3.2 10-2.5z" fill="#fff"/></svg>