<svg version="1.0" xmlns="http://www.w3.org/2000/svg" width="1706.667" height="1460" viewBox="0 0 1280 1095"><path d="M509.1 8.8l-8.3 9.2 4.6 7.2c23.1 37.1 29.3 84.6 16 122-5.7 16.1-11.2 25.2-32.5 54.8-17.2 23.8-29.4 45.5-35.6 63.5-3.6 10.5-3.7 11.6-3.8 24 0 11.2.3 13.8 2.2 18.6 3.5 8.5 11.8 17.6 27.6 30.2 7.9 6.4 16 13.4 17.9 15.6l3.5 4.2 8.3-9.1 8.2-9-4.6-5.1c-6.1-6.8-12.6-16.9-16.3-25.4-13.7-31.5-7-66.5 19.8-103.5 29-39.9 42.7-67.5 47.5-95.4 2-12.3 1.5-33.7-1.2-43.6-5.3-20-15.2-35.8-36.5-58.4l-8.4-8.9-8.4 9.1zm92-.1c-4.4 4.8-8.1 9.1-8.1 9.5 0 .4 1.3 2.7 2.9 5.1 4.2 6.1 12.3 22.8 15.6 31.7 7.8 21.5 10.6 49.9 7 71.1-4.1 24.5-11.2 39.2-34.7 71.7-38.6 53.2-49 93.2-31.2 120 5 7.6 9.4 12.2 22.4 23.5 6.3 5.5 12.9 11.6 14.5 13.4l3 3.4 8.3-9 8.4-9.1-5.4-5.9c-15.3-17-24.2-42.1-22.4-63.5 2.1-25.5 9.2-40.7 35.8-77.7 31.2-43.4 44.1-74.6 42.5-103.4-1-17.4-5.7-30.2-17.7-48.3-5.8-8.6-26.2-34.4-32.5-41-.1-.2-3.9 3.7-8.4 8.5zM7 435.4c0 12.7 2 42.3 4.1 61 17.2 153.3 91 291.3 206.4 385.7 16.8 13.8 42.8 32.1 59.5 42l7.5 4.4-7.5.7c-4.1.4-18.7 1.6-32.5 2.8C99.3 944.2 4.7 966.5.4 989.6c-2.4 13 20.8 28.4 66.8 44.2 76.8 26.5 204.5 48.1 334.8 56.7 51.4 3.3 72.2 3.9 136.5 3.9 64 0 82.5-.5 134.5-3.9 130.1-8.5 255.3-29.7 334-56.4 58.5-19.8 80.2-38.9 61.3-53.9-27.3-21.6-123.5-39.8-269.3-51l-9.5-.7 9-5.4c40.9-24.7 84.2-60.2 117-96l6.8-7.4 9.1 2.1c20.4 4.9 44.2 7.7 76.1 9.2 27.2 1.2 67.4 1.2 79.5 0 71-7.4 129.6-51.4 163.9-123.1 13.6-28.5 22.1-58.2 26.7-93.4 2.5-18.6 2.5-58 .1-73.1-4.1-25.9-11.9-47.4-23.7-65-6.5-9.6-22.3-25.7-30.5-30.9-9.6-6.1-23.4-12.3-33.1-14.7-8.4-2.2-10.3-2.3-36.9-1.9-15.4.2-34.7.3-43 .2-8.2-.1-259.9-.4-559.2-.6L7 428v7.4zm1168.2 34.2c45.4 9.5 57.2 21.9 67.2 70.8 8.6 41.5 3.2 85-15.6 127.6-29.2 66.1-83.2 113.3-140.3 122.5-16.1 2.6-51.9 1.6-85.5-2.6-15-1.8-46.1-6.7-46.7-7.3-.1-.1 3.7-5.7 8.5-12.4 26.7-37.3 51-83.1 67.5-127.7 16.9-45.6 27.9-93.1 33.8-145.5.6-5.8 1.7-10.8 2.3-11.2.6-.4 2.5-.8 4.1-.8 1.7 0 9.5-2.3 17.5-5.1 18-6.3 23.2-7.6 39.5-9.3 21.5-2.2 33.7-2 47.7 1z" fill="#795548"/></svg>