<svg version="1.0" xmlns="http://www.w3.org/2000/svg" width="1706.667" height="1550.667" viewBox="0 0 1280 1163"><path d="M329 160.7c-16.2.2-25 .7-24 1.3 1.2.7.7 1.2-2.2 2.4-5.2 2.2-9.8 9.2-10.5 16-.4 4 0 7 1.7 12.2 2.6 7.6 4.3 10.7 15.5 27.9 15.1 23.2 16.3 25 18.2 28.5 2.1 4 11.2 19.4 18.9 32.3 2.9 4.8 6.5 12.1 7.9 16.3 2.9 8.3 7.5 32.9 7.5 39.9 0 6.8-2.4 6-12.5-4.3-9.2-9.3-12.8-14.4-37.1-53.7-3.3-5.5-10.6-16.5-26.6-40.8-10.4-15.8-17.6-24.4-26.5-31.7-33.5-27.7-64.1-36.7-106.8-31.6-15 1.8-25.5 4.9-42 12.4-8.9 4-11.7 4.7-16.2 4.3-.6-.1-4.8-3.7-9.3-8.1-4.5-4.5-9.6-9-11.3-10-9.2-5.7-25.7 1.8-25.7 11.7 0 3.2 6.6 16.3 8.9 17.8.5.3 2.4 3.1 4.2 6.3 3.1 5.3 3.3 6.4 3.7 17 .5 13.6 0 15.9-12.3 53.2C40.8 315.7 39 323 37 342.8c-3.1 31.6 1.4 63.7 12.5 89.7 6.1 14.1 7.2 16.3 14.5 27.9 17.3 27.4 43.3 54.2 73.5 75.6 5 3.5 9.4 6.7 9.9 7.2.6.5-.5 3.7-2.8 8.2-4.7 9.1-5.2 16.7-1.6 23.9 3.7 7.4 9.9 9.1 25.8 7.1 5.9-.8 11.4-1.7 12.2-2 .8-.3 6.4 0 12.5.6 10.1 1 17.3 2.6 31 6.8 6.5 2 26.9 11.7 30.9 14.7 1.7 1.2 5 3.4 7.3 4.6 12.7 7.2 40.7 33.2 49.2 45.9 2.1 3 5.9 8.5 8.4 12.2 6.2 9 14 24.7 22.1 44.7 8.9 21.7 10.2 24.5 20.9 45.9 10.7 21.3 12.8 25 18.3 32.9 2.2 3.2 5.6 8 7.5 10.8 10.3 15.1 41.1 44.3 61.8 58.6 25.1 17.4 40.4 26.7 54.6 33 4.4 2 9.9 4.6 12.3 5.8l4.3 2.2-.1 9.2c-.2 13.3-1.1 16-6.7 19.9-14.4 9.9-28.2 31.3-36.9 57.3-3.4 10.2-3.6 11.8-3.7 24-.1 7.1 0 14.6.2 16.5.5 5.3 4.9 13.7 9 17.1 3.9 3.3 20.6 11.9 23 11.9.8 0 4.2.8 7.5 1.9 7.7 2.4 22 5.6 36.1 8 6.1 1.1 16.2 2.9 22.5 4.1 6.3 1.1 13.8 2.2 16.5 2.5 2.8.3 10.6 1.3 17.5 2.4 33.2 5.2 47.4 6.5 95 9.2 29.5 1.6 73.7 1.1 92.5-1.1 9.4-1.1 19-2 21.5-2 4.2 0 9.9-.7 45.5-6.1 7.2-1.1 14.2-1.9 15.7-1.9 2.5 0 8.6-1 42.3-7 6.6-1.2 15.2-3 19.2-4.1 3.9-1 7.9-1.9 8.8-1.9 1.8 0 12.3-2.7 23.8-6.1 3.8-1.1 8-2.3 9.4-2.5 4.5-.8 13.9-6.2 15.9-9.1 8.4-12.5 9.1-35.1 2-59.2-7.3-24.5-13.3-35.2-28-49.4l-10.1-9.8-.3-10.2-.4-10.3 3.4-2.5c1.8-1.4 9.4-6.2 16.8-10.6 7.4-4.4 16.9-10.4 21-13.2 4.1-2.8 11.1-7.6 15.5-10.6 13.4-9 17.8-12.2 22.5-16.3 2.5-2.1 8.3-6.7 13-10.2 4.7-3.5 15.7-13.6 24.6-22.5 25.1-25.1 38.8-45.4 49-72.5 6.5-17.2 14.8-44.6 15.8-51.9.2-1.4 1.4-8.7 2.6-16.1 2-12.1 2.2-16 1.7-37-.3-15.3-1-26.5-2-32-.9-4.7-1.9-10.5-2.2-13-1.3-10.9-5.7-32.7-10.6-53-.9-4.1-2.7-11.6-3.9-16.5-1.2-5-2.3-10.2-2.5-11.6-.2-1.5-1.1-5.1-1.9-8-.8-3-1.8-6.8-2-8.4-.3-1.7-1.4-7.3-2.5-12.5-4.4-21.1-6-31.3-8-49-2.6-22.8-2.6-28.5-.1-48.6 1.1-8.7 2-17.9 2-20.4 0-8 5.9-35.8 10.2-48.4 2.7-7.7 10.1-23.1 15.7-32.6 2.4-4.1 6.9-11.8 9.9-17 3-5.2 6.5-10.9 7.8-12.6 1.3-1.7 2.4-3.4 2.4-3.8 0-.4 1.3-2.6 2.9-4.9 1.6-2.3 6.3-9.4 10.5-15.7 6.5-9.8 10.4-15.6 18.1-26.5.8-1.1 1.9-6.2 2.6-11.2.9-7.5.9-10.2-.2-14-1.5-5.5-6.7-11.6-12.1-14.4-2.1-1.1-3.7-2.3-3.4-2.7.2-.4-79.5-.8-177.2-.9-97.8-.1-282.8-.3-411.2-.5-128.4-.3-245-.3-259-.1zm-141.3 84.7c17.1 4.9 32.4 17 38.3 30.1 1.7 3.9 3.5 7.7 3.9 8.5 3.2 6 7.1 27.1 7.1 37.9 0 11.4-3.8 27.1-9.9 40.6-8.8 19.7-11.1 32.7-8.1 44.4 2.7 10.2 13.4 18.8 20.2 16.2 1.2-.5 3.8-3 5.7-5.6 7.5-10.5 17.4-16.8 31.2-20.1 2.9-.7 28.6-.7 31.4 0 12.1 3 28.4 9.6 31.5 12.8.9.8 3.4 2.7 5.7 4.1 5.2 3.3 13.7 13.4 17.9 21.3 6.9 12.9 9.3 31.3 5.8 44.8-.7 2.8-1.5 6.2-1.7 7.6-.3 1.4-1.4 6.1-2.6 10.5-1.1 4.4-3.9 15.9-6.2 25.5-2.3 9.6-5 20.9-6.1 25-1.1 4.1-2.1 8.4-2.3 9.5-.4 4-3.8 18-4.5 18.8-.4.5-5-2.9-10.1-7.5-5.2-4.6-12.2-10.6-15.7-13.4-3.5-2.7-8.1-6.3-10.3-8-2.1-1.8-12-7.5-21.9-12.9-9.9-5.3-18.2-10-18.5-10.5-.3-.5 1.6-3.5 4.3-6.7 7.8-9.5 9.4-12.7 9.9-20.1.7-10.7-3.5-17.7-11.6-19.2-3.4-.6-5.2-.1-13.8 4.1-20.5 9.8-33.7 12.3-50.4 9.4-20-3.5-36.5-11.9-59.4-30.4-12.8-10.3-14.6-12.1-30.8-31.6-1.7-2-9.7-14.7-9.7-15.4 0-.3-1.1-2.7-2.4-5.2-3.3-6.2-6.3-15.8-7.7-25.4-1.6-10.1-1.6-35.2 0-47 .6-5 1.3-10.6 1.6-12.5.4-3.4 2.1-11.6 4.5-21 2-7.8 7.9-20.4 13.8-29.2 5.3-8.1 17.8-20.3 24.7-24.2 14-8 30.3-9.9 46.2-5.2zM772.5 414c7.1.6 15 1.6 17.5 2.2 2.5.6 7.7 1.6 11.5 2.3 10.7 1.9 27.1 7.4 39.3 13.1 4.1 1.9 7.6 3.4 7.8 3.4.2 0 4.6 2.3 9.6 5.2 26.2 14.7 46.1 35.2 57.4 58.8 9.6 20.1 11.8 47.1 5.8 69-5.3 19.3-19.7 40.7-38.1 56.5-11.1 9.4-19.8 15.1-36.5 23.5-7.4 3.6-10.9 5-27.3 10.7-7.3 2.6-7.9 2.7-15.8 4.3-2.7.5-5.2 1.2-5.7 1.5-.4.2-2.9.7-5.6 1-2.7.4-7.6 1-10.9 1.6-20.2 3.2-48.7 3.2-66.1 0-2.8-.5-7.5-1.2-10.4-1.5-2.9-.3-6.9-1-8.9-1.6-4.7-1.2-9.3-2.3-10.6-2.4-.5-.1-3.9-1.1-7.5-2.3-27.1-9-48.9-20.5-65-34.3-19.9-16.9-33.7-38-39.4-60.4-2.9-10.9-3.5-28-1.5-37.8 3.2-15.2 10.6-31.8 20.7-45.9 7.4-10.4 23.3-25.8 33.2-32.3 4.1-2.6 8.8-5.7 10.3-6.8 3.8-2.6 19-10 26.2-12.7 3.3-1.3 7.2-2.9 8.7-3.7 1.4-.8 3.3-1.4 4.1-1.4.9 0 5.1-1.1 9.4-2.4 12.4-3.9 27.7-6.6 42.8-7.7 7.7-.5 14.5-1.2 15-1.4 1.1-.5 10.8 0 30 1.5z" fill="#795548"/></svg>